{
  "accessors": [
    {
      "bufferView": 2,
      "componentType": 5126,
      "count": 40146,
      "max": [8000.0, 8000.0, 1318.1937255859375],
      "min": [0.0, 0.0, 650.476318359375],
      "type": "VEC3"
    },
    {
      "bufferView": 2,
      "byteOffset": 481752,
      "componentType": 5126,
      "count": 40146,
      "max": [0.9012484550476074, 0.9319568872451782, 1.0],
      "min": [-0.9009574055671692, -0.9104852676391602, 0.25359344482421875],
      "type": "VEC3"
    },
    {
      "bufferView": 3,
      "componentType": 5126,
      "count": 40146,
      "max": [1.0, 0.18958093225955963, 0.9049265384674072, 1.0],
      "min": [
        0.3104577660560608, -0.23345507681369781, -0.9505870342254639, 1.0
      ],
      "type": "VEC4"
    },
    {
      "bufferView": 1,
      "componentType": 5126,
      "count": 40146,
      "max": [1.0, 1.0],
      "min": [0.0, 0.0],
      "type": "VEC2"
    },
    {
      "bufferView": 0,
      "componentType": 5125,
      "count": 234255,
      "type": "SCALAR"
    }
  ],
  "asset": {
    "extras": {
      "author": "bilgehan.korkmaz (https://sketchfab.com/bilgehan.korkmaz)",
      "license": "SKETCHFAB Standard (https://sketchfab.com/licenses)",
      "source": "https://sketchfab.com/3d-models/last-moments-of-planet-mars-e09a1b3e237c4cc181b4723743ba68bd",
      "title": "Last Moments of Planet Mars"
    },
    "generator": "Sketchfab-16.8.0",
    "version": "2.0"
  },
  "bufferViews": [
    {
      "buffer": 0,
      "byteLength": 937020,
      "name": "floatBufferViews",
      "target": 34963
    },
    {
      "buffer": 0,
      "byteLength": 321168,
      "byteOffset": 937020,
      "byteStride": 8,
      "name": "floatBufferViews",
      "target": 34962
    },
    {
      "buffer": 0,
      "byteLength": 963504,
      "byteOffset": 1258188,
      "byteStride": 12,
      "name": "floatBufferViews",
      "target": 34962
    },
    {
      "buffer": 0,
      "byteLength": 642336,
      "byteOffset": 2221692,
      "byteStride": 16,
      "name": "floatBufferViews",
      "target": 34962
    }
  ],
  "buffers": [
    {
      "byteLength": 2864028,
      "uri": "scene.bin"
    }
  ],
  "extensionsUsed": ["KHR_materials_specular"],
  "images": [
    {
      "uri": "textures/material_0_baseColor.jpeg"
    },
    {
      "uri": "textures/material_0_metallicRoughness.png"
    },
    {
      "uri": "textures/material_0_normal.jpeg"
    }
  ],
  "materials": [
    {
      "doubleSided": true,
      "extensions": {
        "KHR_materials_specular": {
          "specularColorFactor": [1.0, 1.0, 1.0],
          "specularFactor": 0.13257183259987076
        }
      },
      "name": "material_0",
      "normalTexture": {
        "index": 2
      },
      "occlusionTexture": {
        "index": 1
      },
      "pbrMetallicRoughness": {
        "baseColorTexture": {
          "index": 0
        },
        "metallicFactor": 0.0,
        "metallicRoughnessTexture": {
          "index": 1
        }
      }
    }
  ],
  "meshes": [
    {
      "name": "Object_0",
      "primitives": [
        {
          "attributes": {
            "NORMAL": 1,
            "POSITION": 0,
            "TANGENT": 2,
            "TEXCOORD_0": 3
          },
          "indices": 4,
          "material": 0,
          "mode": 4
        }
      ]
    }
  ],
  "nodes": [
    {
      "children": [1],
      "matrix": [
        1.0, 0.0, 0.0, 0.0, 0.0, 2.220446049250313e-16, -1.0, 0.0, 0.0, 1.0,
        2.220446049250313e-16, 0.0, 0.0, 0.0, 0.0, 1.0
      ],
      "name": "Sketchfab_model"
    },
    {
      "children": [2],
      "name": "wet_mars.obj.cleaner.materialmerger.gles",
      "translation": [-4000, -4000, -653.476318359375]
    },
    {
      "mesh": 0,
      "name": "Object_2"
    }
  ],
  "samplers": [
    {
      "magFilter": 9729,
      "minFilter": 9987,
      "wrapS": 10497,
      "wrapT": 10497
    }
  ],
  "scene": 0,
  "scenes": [
    {
      "name": "Sketchfab_Scene",
      "nodes": [0]
    }
  ],
  "textures": [
    {
      "sampler": 0,
      "source": 0
    },
    {
      "sampler": 0,
      "source": 1
    },
    {
      "sampler": 0,
      "source": 2
    }
  ]
}
